<svg xmlns="http://www.w3.org/2000/svg" width="264" height="90" fill="none"><path fill-rule="evenodd" clip-rule="evenodd" d="M132.644 60.528c1.704 0 3.23-.268 4.576-.804a9.375 9.375 0 0 0 3.443-2.33c.948-1.016 1.676-2.218 2.185-3.606.508-1.388.762-2.92.762-4.597 0-2.144-.432-4.013-1.298-5.607-.866-1.594-2.062-2.838-3.587-3.73-1.525-.894-3.291-1.34-5.297-1.34-.99 0-1.925.15-2.804.453a8.349 8.349 0 0 0-2.391 1.278 6.832 6.832 0 0 0-1.732 1.937h-.041V29.938h-4.741v19.335c0 2.309.461 4.308 1.381 5.999.921 1.69 2.206 2.989 3.855 3.896s3.545 1.36 5.689 1.36Zm-23.371-1.134c-1.842.784-3.917 1.175-6.225 1.175-2.282 0-4.35-.392-6.205-1.175-1.855-.783-3.436-1.862-4.741-3.236a14.68 14.68 0 0 1-3.03-4.782C88.357 49.562 88 47.624 88 45.563s.357-3.992 1.072-5.792a14.734 14.734 0 0 1 3.03-4.762c1.305-1.374 2.886-2.446 4.741-3.216 1.855-.77 3.937-1.154 6.246-1.154 2.281 0 4.342.385 6.184 1.154 1.841.77 3.421 1.842 4.74 3.216a14.561 14.561 0 0 1 3.052 4.762c.714 1.8 1.071 3.73 1.071 5.792 0 2.061-.357 3.999-1.071 5.813a14.51 14.51 0 0 1-3.052 4.782c-1.319 1.374-2.899 2.453-4.74 3.236Zm-10.224-3.978c1.236.522 2.569.783 3.999.783 1.456 0 2.803-.26 4.04-.783a9.473 9.473 0 0 0 3.236-2.247 10.282 10.282 0 0 0 2.123-3.38c.495-1.278.742-2.687.742-4.226 0-1.512-.247-2.913-.742-4.205a9.787 9.787 0 0 0-2.123-3.36c-.921-.948-2-1.69-3.236-2.226-1.237-.536-2.584-.804-4.04-.804-1.43 0-2.763.268-4 .804a10.008 10.008 0 0 0-3.236 2.226 10.04 10.04 0 0 0-2.143 3.36c-.509 1.292-.763 2.693-.763 4.205 0 1.54.254 2.948.763 4.226a10.56 10.56 0 0 0 2.143 3.38c.92.976 2 1.725 3.237 2.247Zm30.421.186c.934.59 1.992.886 3.174.886 1.21 0 2.282-.295 3.216-.886.934-.591 1.663-1.41 2.185-2.453.522-1.045.783-2.254.783-3.628 0-1.347-.261-2.543-.783-3.587s-1.244-1.869-2.165-2.474c-.92-.604-1.985-.907-3.195-.907-1.209 0-2.281.296-3.215.887-.935.59-1.663 1.408-2.185 2.453-.522 1.044-.784 2.254-.784 3.628s.262 2.583.784 3.627c.522 1.045 1.25 1.863 2.185 2.453Zm20.411-19.521c.852 0 1.574-.302 2.165-.907s.886-1.32.886-2.144c0-.824-.295-1.539-.886-2.144a2.913 2.913 0 0 0-2.165-.907c-.824 0-1.539.303-2.143.907-.605.605-.907 1.32-.907 2.144 0 .825.302 1.54.907 2.144.604.605 1.319.907 2.143.907Zm-2.35 2.927h4.742v21.025h-4.742V39.008Zm26.126 21.025v-4.04h-5.648c-1.182 0-2.254-.185-3.216-.556-.962-.371-1.759-.921-2.391-1.65-.632-.728-1.03-1.642-1.195-2.741h14.924c.055-.192.096-.467.123-.825.028-.357.041-.673.041-.948 0-2.006-.35-3.82-1.051-5.442-.701-1.621-1.779-2.913-3.236-3.875-1.457-.962-3.312-1.443-5.566-1.443-2.006 0-3.779.468-5.318 1.402-1.539.934-2.748 2.226-3.628 3.875-.879 1.65-1.319 3.56-1.319 5.73 0 2.062.495 3.883 1.484 5.463.99 1.58 2.371 2.817 4.144 3.71 1.772.894 3.84 1.34 6.204 1.34h5.648ZM161.165 47.83h10.389a8.718 8.718 0 0 0-.227-1.566 5.752 5.752 0 0 0-.576-1.484 4.48 4.48 0 0 0-.99-1.217 4.67 4.67 0 0 0-1.422-.824c-.55-.206-1.182-.31-1.897-.31-.824 0-1.553.159-2.185.475a5.123 5.123 0 0 0-1.607 1.237 5.467 5.467 0 0 0-1.011 1.731 9.108 9.108 0 0 0-.474 1.958Z" fill="#173641"/></svg>