<svg xmlns="http://www.w3.org/2000/svg" width="264" height="90" fill="none"><path d="M90.835 43.534a1.081 1.081 0 0 1-.637.764 1.088 1.088 0 0 1-.993-.074c-.482-.308-1.013-.616-1.457-.8-1.223-.53-3.05-1.035-4.99-1.023-2.666 0-3.95.505-4.408 1.552-.704 1.613 1.79 2.192 2 2.241h.026l.913.246.074.025c.42.074 3.47.677 5.743 1.736 3.408 1.601 3.16 5.05 2.037 7.278a7.611 7.611 0 0 1-3.902 3.572c-1.087.468-3.297 1.231-7.31 1.243-3.335.025-5.99-.578-7.583-1.059a1.892 1.892 0 0 1-1.297-2.254l.569-2.364a1.355 1.355 0 0 1 1.456-1.026c.216.022.424.095.606.214.704.455 1.63.935 2.741 1.256 2.952.862 4.397.739 6.088.615.655-.049 2.273-.381 2.717-1.44.642-1.601-1.667-2.094-1.803-2.118h-.012l-1-.247h-.025c-.247-.037-5.224-1.022-7.261-2.721a4.777 4.777 0 0 1-1.605-3.572c0-.665.148-1.428.16-1.502v-.012a6.667 6.667 0 0 1 3.087-4.163c1.877-1.108 4.483-2.093 8.768-2.093 2.63 0 4.927.492 6.421.936a2.052 2.052 0 0 1 1.445 2.438l-.568 2.352Zm49.642 2.623a.96.96 0 0 0 .963-.985c0-1.268-.494-3.337-3.643-3.337a6.06 6.06 0 0 0-5.211 3.115.788.788 0 0 0 .679 1.207h7.212Zm7.224 2.599v.024l-.049.136a1.73 1.73 0 0 1-1.655 1.231l-13.954-.012a.754.754 0 0 0-.766.763c.037 1.441.716 4.372 5.582 4.372 4.482 0 7.162-1.613 7.162-1.613a1.203 1.203 0 0 1 1.306.098 1.19 1.19 0 0 1 .435 1.232l-.543 2.34a1.971 1.971 0 0 1-1.26 1.416c-1.383.492-4.075 1.354-7.915 1.354-4.866 0-7.607-1.477-9.348-3.731-1.914-2.475-2.174-5.899-1.161-9.26 2.927-9.815 12.472-9.52 13.028-9.52 1.556 0 4.161.099 6.236 1.244a6.284 6.284 0 0 1 3.05 3.694l.037.099c.618 1.76.21 4.31-.037 5.505-.074.357-.123.578-.148.628Zm39.565-2.599a.977.977 0 0 0 .964-.985c0-1.268-.507-3.337-3.656-3.337a6.06 6.06 0 0 0-5.211 3.115.795.795 0 0 0 .679 1.207h7.224Zm7.224 2.599v.024l-.049.136a1.724 1.724 0 0 1-1.655 1.231l-13.954-.012a.757.757 0 0 0-.711.47.759.759 0 0 0-.054.293c.037 1.441.716 4.372 5.569 4.372 4.495 0 7.162-1.613 7.162-1.613a1.201 1.201 0 0 1 1.723.643c.077.221.088.46.031.687l-.544 2.34a1.994 1.994 0 0 1-1.259 1.416c-1.396.492-4.088 1.354-7.916 1.354-4.865 0-7.607-1.477-9.348-3.731-1.926-2.475-2.173-5.899-1.173-9.26 2.939-9.815 12.497-9.52 13.028-9.52 1.556 0 4.174.099 6.248 1.244a6.281 6.281 0 0 1 3.038 3.694l.05.099c.617 1.76.21 4.31-.05 5.505l-.136.628Zm-87.91 1.797a.795.795 0 0 0-.183-.707.796.796 0 0 0-.682-.265c-1.198.135-3.05.37-3.988.554-2.013.419-2.791 1.391-2.84 1.478h-.013c-.087.123-1.37 1.773-.123 3.337.456.554 1.605.776 2.63.677 1.198-.098 2.716-1.047 2.852-1.12l.013-.013 1.037-.702a2.09 2.09 0 0 0 .84-1.231l.457-2.008ZM126.461 30a1.113 1.113 0 0 1 1.115.863 1.1 1.1 0 0 1-.004.504l-6.297 27.055a1.387 1.387 0 0 1-1.359 1.084h-3.828a1.302 1.302 0 0 1-1.259-1.6l1.852-7.944a.468.468 0 0 0-.753-.492l-1.964 1.527-4.594 3.202-5.186 3.608a11.185 11.185 0 0 1-7.026 2.303c-4.78 0-6.545-4.064-5.582-7.414.79-2.77 2.408-4.36 5.31-5.443 1.914-.702 5.952-1.478 10.002-1.6h.062a.99.99 0 0 0 .951-1.146c-.074-.493-.222-1.022-.519-1.293-1.111-.985-3.371-.997-4.507-.997-1.852 0-4.15.615-5.705 1.12a1.089 1.089 0 0 1-1.374-.684 1.08 1.08 0 0 1-.034-.56l.408-2.08a2.065 2.065 0 0 1 1.654-1.626c12.534-2.242 15.967.837 16.745 2.758.692 1.724.124 3.694.074 3.892l-.358 1.539c-.099.419.371.739.741.492l8.187-5.726c.494-.345.099-1.108-.469-.899l-2.519.973a.928.928 0 0 1-1.214-.577.921.921 0 0 1-.021-.494l2.025-9.064c.173-.739.84-1.28 1.606-1.28h3.84Zm36.503 20.566a.801.801 0 0 0-.864-.985c-1.211.135-3.051.37-3.989.554-2.025.43-2.791 1.404-2.853 1.478v.012c-.098.11-1.432 1.81-.123 3.325 1.297 1.502 5.038.357 6.372-.616.617-.456.889-1.268 1-1.773l.457-2.008v.013Zm7.743-9.347c.691 1.724.136 3.694.086 3.891l-.309 1.281h-.012l-2.643 11.354a2.282 2.282 0 0 1-2.222 1.761h-3.211a1.218 1.218 0 0 1-.943-.458 1.201 1.201 0 0 1-.23-1.02.309.309 0 0 0-.457-.332c-.642.406-3.112 2.414-7.199 2.414-4.199 0-5.52-3.202-5.582-3.325a7.094 7.094 0 0 1 0-4.557c.63-1.81 1.951-3.768 5.31-4.975 2.815-1.01 6.94-1.354 7.002-1.354h.012l3.063-.247a.983.983 0 0 0 .666-1.071c-.074-.493-.197-2.488-5.026-2.303-1.84.074-4.136.64-5.705 1.133a1.089 1.089 0 0 1-1.373-.684 1.084 1.084 0 0 1-.034-.56l.419-2.08a2.05 2.05 0 0 1 1.655-1.626c12.522-2.242 15.967.825 16.733 2.758Zm-63.411 18.287a.647.647 0 0 1-.583-.414.638.638 0 0 1 .163-.694l4.001-3.62c.457-.42 1.198.012 1.037.615l-.802 3.227a1.172 1.172 0 0 1-1.149.886h-2.667Z" fill="#173641"/></svg>