<svg xmlns="http://www.w3.org/2000/svg" width="264" height="90" fill="none"><path fill-rule="evenodd" clip-rule="evenodd" d="M93.299 36.93v.033l1.452 6.131c2.328.296 4.128 2.276 4.128 4.674 0 2.603-2.12 4.713-4.735 4.713-.332 0-.656-.034-.97-.1l-3.63 5.721c-.27.438-.777.674-1.285.606l-9.267-1.144-1.387 3.433.203 7.237c.034.539-.304 1.044-.811 1.246-.17.067-.338.1-.508.1-.372 0-.71-.168-.98-.437l-8.152-8.785h-9.504c-.101 0-.203 0-.304-.034a.12.12 0 0 1-.05-.017.12.12 0 0 0-.052-.017c-.067 0-.134-.033-.201-.066l-.002-.001a.177.177 0 0 0-.05-.034c-.017-.008-.034-.017-.05-.033a.467.467 0 0 0-.069-.05.466.466 0 0 1-.067-.051l-.102-.101c0-.034-.033-.068-.067-.101 0-.017-.009-.026-.017-.034-.009-.008-.017-.017-.017-.034l-.034-.033-5.31-8.483-8.895-3.366c-.474-.202-.812-.606-.846-1.11l-.599-6.038A4.716 4.716 0 0 1 38 36.324c0-2.603 2.12-4.713 4.735-4.713.538 0 1.056.09 1.538.254l6.714-6.818c0-.034.034-.034.034-.034a1.03 1.03 0 0 1 .237-.168c.017 0 .025-.008.034-.017.008-.008.017-.016.034-.016.067-.034.135-.068.236-.101 0-.034 0-.034.034-.034l12.582-3.198c.102-.034.237-.034.372-.034l9.2.404h.067c.034.034.102.034.136.034a.12.12 0 0 1 .05.017.12.12 0 0 0 .051.017c.034 0 .102 0 .135.033h.034l10.451 4.982c.17.101.305.202.44.337l7.88 9.122c.034 0 .034.034.034.034h.001c.067.067.101.1.135.168.033 0 .033.034.033.034 0 .016.008.032.017.049v.001c.009.017.017.034.017.05.034.068.068.135.068.203Zm-2.94.266 2.049 6.187c-.153.06-.302.127-.446.202L83.87 37.42a4.7 4.7 0 0 0 .122-.848l6.367.625Zm-11.096 3.84-.12-.001-3.944 4.484a6.344 6.344 0 0 1 1.34 3.455l13.228.594a4.682 4.682 0 0 1-.358-1.8c0-.885.245-1.713.672-2.42l-7.472-5.69a4.731 4.731 0 0 1-3.346 1.378Zm-3.047-1.105-3.327 3.742a6.428 6.428 0 0 0-2.758-.617c-2.077 0-3.923.98-5.098 2.5l-6.165-3.308 15.945-4.31a4.721 4.721 0 0 0 1.403 1.993Zm-20.054 3.832 7.73 4.15a6.38 6.38 0 0 0-.187 1.538c0 1.068.262 2.074.727 2.959l-6.274 4.716-4.431-7.102 2.435-6.261Zm5.547 13.935 4.374-3.28a6.42 6.42 0 0 0 4.29 1.425l2.43 6.5-.237-.235-3.72-3.972a1.333 1.333 0 0 0-.981-.438h-6.156Zm13.19 2.794-1.968-5.282a6.423 6.423 0 0 0 3.323-3.813l13.832.747-2.435 3.838-9.437-1.178a1.34 1.34 0 0 0-1.386.807l-1.86 4.612-.021.06c-.026.07-.047.13-.047.21Zm-14.746-21.51 14.51-3.776a4.717 4.717 0 0 1 1.88-2.74l-3.492-6.92-12.898 13.437Zm19.223-7.37a4.737 4.737 0 0 1 4.04 2.446l4.844.46-4.939-5.33-7.268-3.61 3.323 6.034ZM44.19 45.715l-.472-4.78a4.736 4.736 0 0 0 2.599-1.528l7.479 3.211-2.3 5.857-7.306-2.76Zm3.281-9.391a4.68 4.68 0 0 0-1.055-2.966l4.708-4.776 2.503 11.108-6.206-2.679c.033-.224.05-.454.05-.687ZM70.706 24.34l-6.088-.269-11.161 2.827 2.773 12.354L70.706 24.34Zm135.946 32.72c-2.773 0-3.788-1.784-3.788-4.646V32.891h3.889v19.725c0 .943.44 1.28.846 1.28.169 0 .304 0 .609-.068l.507 2.895c-.473.202-1.15.337-2.063.337Zm-44.863-5.992c0 3.568 1.421 5.992 5.277 5.992 1.319 0 2.469-.303 3.382-.606l-.677-2.861c-.473.202-1.15.37-1.724.37-1.59 0-2.334-.943-2.334-2.895V43.19h4.227v-3.063h-4.227v-4.51h-3.247l-.474 4.51-2.57.169v2.894h2.367v7.877Zm-37.725-2.66c0 5.454 3.585 8.652 8.185 8.652 2.096 0 4.092-.74 5.682-1.784l-1.319-2.424c-1.218.774-2.436 1.212-3.856 1.212-2.672 0-4.566-1.683-4.904-4.68h10.552c.102-.403.169-1.076.169-1.817 0-4.611-2.367-7.843-6.865-7.843-3.89 0-7.644 3.299-7.644 8.685Zm3.754-1.48c.338-2.76 2.029-4.208 3.991-4.208 2.266 0 3.382 1.582 3.382 4.208h-7.373Zm-18.656 9.728h12.988v-3.097h-8.084l7.813-11.377v-2.054h-11.837v3.063h6.967l-7.847 11.378v2.087Zm37.015 0h-3.889V40.128h3.213l.271 2.222h.135c1.488-1.448 3.179-2.626 5.445-2.626 3.552 0 5.107 2.39 5.107 6.564v10.368h-3.889v-9.863c0-2.727-.778-3.736-2.604-3.736-1.455 0-2.402.707-3.789 2.053v11.546Zm31.147 0h-3.889V40.128h3.213l.27 2.929h.136c1.183-2.155 2.942-3.333 4.701-3.333.846 0 1.387.101 1.894.337l-.676 3.366c-.575-.168-1.015-.27-1.726-.27-1.319 0-2.908.91-3.923 3.4v10.099Zm7.316-8.247c0 5.453 3.585 8.65 8.184 8.65 2.097 0 4.093-.74 5.683-1.783l-1.319-2.424c-1.218.774-2.436 1.212-3.856 1.212-2.672 0-4.566-1.683-4.904-4.68h10.552c.101-.403.169-1.076.169-1.817 0-4.611-2.368-7.843-6.866-7.843-3.889 0-7.643 3.299-7.643 8.685Zm3.754-1.481c.338-2.76 2.029-4.208 3.991-4.208 2.266 0 3.382 1.582 3.382 4.208h-7.373Zm22.942 5.285c0 2.894 2.029 4.847 4.938 4.847 1.961 0 3.653-.977 5.141-2.222h.101l.305 1.818H225V46.86c0-4.611-2.029-7.136-6.19-7.136-2.638 0-4.971 1.01-6.798 2.155l1.421 2.591c1.454-.875 3.01-1.615 4.667-1.615 2.232 0 2.976 1.48 3.01 3.231-6.798.74-9.774 2.592-9.774 6.127Zm3.788-.303c0-1.65 1.488-2.828 5.986-3.4v3.703c-1.217 1.144-2.266 1.817-3.619 1.817-1.386 0-2.367-.64-2.367-2.12Z" fill="#173641"/></svg>